<?xml version="1.0" encoding="UTF-8" standalone="no"?>
<svg
   xmlns:dc="http://purl.org/dc/elements/1.1/"
   xmlns:cc="http://creativecommons.org/ns#"
   xmlns:rdf="http://www.w3.org/1999/02/22-rdf-syntax-ns#"
   xmlns:svg="http://www.w3.org/2000/svg"
   xmlns="http://www.w3.org/2000/svg"
   id="svg8"
   version="1.1"
   viewBox="0 0 90 80"
   height="80mm"
   width="90mm">
  <defs
     id="defs2" />
  <metadata
     id="metadata5">
    <rdf:RDF>
      <cc:Work
         rdf:about="">
        <dc:format>image/svg+xml</dc:format>
        <dc:type
           rdf:resource="http://purl.org/dc/dcmitype/StillImage" />
        <dc:title></dc:title>
      </cc:Work>
    </rdf:RDF>
  </metadata>
  <g
     transform="translate(0,-217)"
     id="layer1">
    <g
       style="fill:#fffffb;fill-opacity:1;stroke:none;stroke-opacity:1"
       transform="translate(-36.663691,160.63988)"
       id="g4499">
      <path
         style="fill:#fffffb;fill-opacity:1;stroke:none;stroke-width:0.26458332px;stroke-linecap:butt;stroke-linejoin:miter;stroke-opacity:1"
         d="m 111.98593,78.106256 c -2.74236,-3.734877 -31.806492,13.276811 -71.700949,40.840814 3.369838,-1.95379 -2.939737,2.07178 0.24288,0.39956 C 85.035577,95.961286 113.43302,79.709061 111.98593,78.106256 Z"
         id="path4487" />
      <path
         style="fill:#fffffb;fill-opacity:1;stroke:none;stroke-width:0.26458332px;stroke-linecap:butt;stroke-linejoin:miter;stroke-opacity:1"
         d="m 59.066566,62.738258 c -6.105516,4.192467 24.819803,27.769728 30.213931,31.869265 9.449404,7.181547 19.185683,13.864977 15.400233,21.013737 -6.30243,11.19488 -26.576775,6.85877 -26.042236,0.26843 1.014401,-5.23106 7.105021,-5.33609 13.435856,-3.63974 0,0 -4.547169,-3.3997 -11.192318,-2.35204 -2.956529,0.72302 -6.163987,3.62397 -6.163987,7.12907 0,12.81142 22.306374,13.34834 32.677975,9.41199 17.39756,-8.07388 10.51427,-20.71165 8.51046,-22.79134 C 109.8513,97.501785 72.029138,65.811868 59.066566,62.738268 Z"
         id="path4489" />
      <path
         style="fill:#fffffb;fill-opacity:1;stroke:none;stroke-width:0.26458332px;stroke-linecap:butt;stroke-linejoin:miter;stroke-opacity:1"
         d="m 39.073289,110.51599 0.188986,17.05618 c 10.578146,-2.09552 6.376195,-26.50556 -0.188986,-17.05618 z"
         id="path4491" />
      <path
         style="fill:#fffffb;fill-opacity:1;stroke:none;stroke-width:0.26458332px;stroke-linecap:butt;stroke-linejoin:miter;stroke-opacity:1"
         d="m 40.358409,109.89232 c 3.170538,-4.77612 20.185366,8.70885 13.79613,11.90625 z"
         id="path4493" />
    </g>
  </g>
</svg>
